<?xml version="1.0" encoding="UTF-8"?><svg id="Layer_1" xmlns="http://www.w3.org/2000/svg" xmlns:xlink="http://www.w3.org/1999/xlink" viewBox="0 0 1016 932"><defs><filter id="drop-shadow-1" filterUnits="userSpaceOnUse"><feOffset dx="26" dy="62"/><feGaussianBlur result="blur" stdDeviation="30"/><feFlood flood-color="#231f20" flood-opacity=".29"/><feComposite in2="blur" operator="in"/><feComposite in="SourceGraphic"/></filter><filter id="drop-shadow-2" filterUnits="userSpaceOnUse"><feOffset dx="26" dy="62"/><feGaussianBlur result="blur-2" stdDeviation="30"/><feFlood flood-color="#231f20" flood-opacity=".29"/><feComposite in2="blur-2" operator="in"/><feComposite in="SourceGraphic"/></filter><linearGradient id="linear-gradient" x1="76.14" y1="173.53" x2="791.08" y2="438.44" gradientUnits="userSpaceOnUse"><stop offset=".03" stop-color="#fff"/><stop offset=".92" stop-color="#cecacb"/></linearGradient></defs><path d="M896.58,424.52c-11.35-57.19-22.7-114.38-34.12-171.56-.67-5.42-4.91-10.82-12.69-15.06-95.31-51.92-272.78-148.72-368.06-200.64-16.55-9.02-42.82-9.39-58.68-.83L116.84,201.72l263.28,157.15.26-.07.07.27,1.43.85-.91,1.52-1.13-.67-262.92,67.38c-11.35,56.94-18.43,115.09-28.27,172.46-2.13,13.07-4.21,26.15-6.25,39.22-1.86,8.16,2.68,16.9,13.54,23.38l177.57,106.01c18.05,10.78,46.71,11.22,64.01,1l547-323.4c10.11-5.98,14.09-14.28,12.06-22.3Z" style="fill:#bcbec0; filter:url(#drop-shadow-1); stroke:#939598; stroke-miterlimit:10; stroke-width:4px;"/><path d="M114.96,426.82l262.75-67.34L115.03,202.7l-2.35,1.27c-6.97,3.76-10.76,8.62-11.43,13.65-5.61,26.91-11.18,53.84-16.72,80.76-5.38,25.8-10.71,51.61-16.03,77.42-3.66,11.85-2.36,21.86,12.05,30.47,0,0,26.82,16.01,34.42,20.55Z" style="fill:#bcbec0; filter:url(#drop-shadow-2); stroke:#939598; stroke-miterlimit:10; stroke-width:4px;"/><path d="M423.03,36.43c15.86-8.56,42.13-8.19,58.68.84l175.3,95.56,178.56,97.34,14.2,7.74c16.55,9.02,17.11,23.28,1.25,31.84l-501.5,270.72c-15.86,8.56-42.13,8.19-58.68-.84l-162.79-88.74c-16.55-9.02-17.11-23.28-1.25-31.84l133.71-72.18c15.86-8.56,15.3-22.81-1.25-31.84l-145.33-79.22c-16.55-9.02-17.11-23.28-1.25-31.84L423.03,36.43Z" style="fill:url(#linear-gradient); stroke:#bcbec0; stroke-miterlimit:10;"/><g style="isolation:isolate;"><path d="M492,171.47l-222.8,34.61c7.39-22.83,26.27-44.64,56.67-62.31,20.95-12.18,45.32-21.18,71.33-27.04l94.79,54.73Z" style="fill:#2bb673; stroke-width:0px;"/><path d="M398.77,190.66l-59.26,129.69c-4.34-2.13-8.57-4.37-12.67-6.74-48.43-27.96-68.13-66.28-59.05-102.6l130.98-20.35Z" style="fill:#2bb673; stroke-width:0px;"/><path d="M544.69,341.53c-65.63,13.86-141.05,7.85-198.5-18.03l34.92-76.41,163.58,94.44Z" style="fill:#2bb673; stroke-width:0px;"/></g><path d="M601.41,134.66l-33.83,74.03-162.25-93.68c65.3-12.89,139.6-6.34,196.08,19.64Z" style="fill:#2bb673; stroke-width:0px;"/><path d="M677.11,250.07c-7.1,23.28-26.1,45.55-57.06,63.54-19.88,11.56-42.84,20.26-67.36,26.12l-96-55.42,220.42-34.24Z" style="fill:#2bb673; stroke-width:0px;"/><path d="M619.1,143.77c47.88,27.65,67.68,65.42,59.34,101.38l-128.51,19.96,58.15-127.26c3.76,1.88,7.44,3.85,11.01,5.92Z" style="fill:#2bb673; stroke-width:0px;"/><path d="M306.83,417.78c3.67-2.03,7.64-2.85,11.91-2.44,4.26.4,8.88,2.04,13.84,4.9l22.66,13.05-5.96,3.3-22.66-13.05c-3.29-1.89-6.28-2.97-8.96-3.23-2.68-.26-5.24.29-7.67,1.63-2.77,1.54-3.91,3.29-3.41,5.26.5,1.97,2.6,4.03,6.33,6.18l20.67,11.9-5.93,3.28-36.57-21.06,5.93-3.28,5.49,3.16c-1.04-1.79-1.19-3.49-.46-5.11.73-1.62,2.32-3.12,4.79-4.49Z" style="fill:#000; stroke-width:0px;"/><polygon points="267.79 426.65 273.34 429.84 251.29 442.05 264.42 449.61 285.5 437.94 291.04 441.13 269.97 452.8 288.94 463.73 311.59 451.18 317.14 454.38 287.98 470.53 239.24 442.46 267.79 426.65" style="fill:#000; stroke-width:0px;"/><path d="M333.94,392.03l10.38,5.98,13.47-7.46,4.67,2.69-13.47,7.46,19.85,11.43c2.7,1.56,5.08,2.36,7.17,2.42,2.07.06,4.37-.61,6.88-2l6.67-3.7,4.8,2.76-7.25,4.02c-4.44,2.46-8.49,3.68-12.12,3.65-3.63-.03-7.65-1.31-12.07-3.86l-19.85-11.43-9.64,5.34-4.67-2.69,9.64-5.34-10.38-5.98,5.93-3.28Z" style="fill:#000; stroke-width:0px;"/><polygon points="477.87 318.46 485.69 318.73 484.71 337.26 484.54 340.51 490.27 340.48 523.1 340.28 523.44 344.7 476.47 344.98 477.87 318.46" style="fill:#000; stroke-width:0px;"/><path d="M432.6,348.11c1.46-.81,3.01-1.46,4.65-1.95,1.64-.49,3.43-.83,5.37-1.02l6.14,3.54c-2.27.12-4.28.42-6.05.88-1.77.46-3.44,1.13-5,2-3.7,2.05-5.35,4.29-4.95,6.73s2.82,4.93,7.25,7.49l18.19,10.48-5.96,3.3-36.57-21.06,5.96-3.3,7.15,4.12c-1.61-2.04-2.07-4.03-1.4-5.96.67-1.93,2.41-3.68,5.22-5.24Z" style="fill:#000; stroke-width:0px;"/><path d="M392.89,391.69l.2.11c4.82,2.96,9.33,4.51,13.56,4.62,4.23.12,8.21-.86,11.95-2.93,1.89-1.04,3.56-2.32,5.01-3.81,1.45-1.5,2.73-3.25,3.83-5.26l5.98,3.44c-1.32,1.79-2.8,3.4-4.42,4.83-1.63,1.43-3.42,2.69-5.37,3.77-5.61,3.11-11.7,4.55-18.26,4.34-6.56-.21-12.84-2.04-18.83-5.49s-8.94-6.9-9.33-10.62c-.39-3.72,1.99-7.01,7.15-9.86,4.59-2.54,9.8-3.64,15.61-3.3,5.81.35,11.03,1.76,15.67,4.24l2.94,1.69-25.68,14.23ZM385.01,383.48c.07,2.13,1.22,3.93,3.43,5.4l19.49-10.84c-2.78-1.31-5.87-2.06-9.27-2.26-3.4-.2-6.55.51-9.47,2.13-2.86,1.58-4.25,3.44-4.18,5.56" style="fill:#000; stroke-width:0px;"/><polygon points="542.05 262.69 585.51 287.72 580.01 290.77 574.44 287.56 536.55 265.74 542.05 262.69" style="fill:#000; stroke-width:0px;"/><polygon points="574.44 287.56 580.01 290.77 585.5 287.73 490.27 340.48 484.54 340.51 484.71 337.26 574.44 287.56" style="fill:#000; stroke-width:0px;"/></svg>